<svg width="45" height="43" viewBox="0 0 45 43" fill="none" xmlns="http://www.w3.org/2000/svg">
<g opacity="0.4">
<circle cx="43.9888" cy="1.01124" r="1.01124" transform="rotate(90 43.9888 1.01124)" fill="white"/>
<circle cx="43.9888" cy="9.10171" r="1.01124" transform="rotate(90 43.9888 9.10171)" fill="white"/>
<circle cx="43.9888" cy="17.1914" r="1.01124" transform="rotate(90 43.9888 17.1914)" fill="white"/>
<circle cx="43.9888" cy="25.2815" r="1.01124" transform="rotate(90 43.9888 25.2815)" fill="white"/>
<circle cx="43.9888" cy="33.3717" r="1.01124" transform="rotate(90 43.9888 33.3717)" fill="white"/>
<circle cx="43.9888" cy="41.4613" r="1.01124" transform="rotate(90 43.9888 41.4613)" fill="white"/>
<circle cx="35.393" cy="1.01124" r="1.01124" transform="rotate(90 35.393 1.01124)" fill="white"/>
<circle cx="35.393" cy="9.10171" r="1.01124" transform="rotate(90 35.393 9.10171)" fill="white"/>
<circle cx="35.393" cy="17.1914" r="1.01124" transform="rotate(90 35.393 17.1914)" fill="white"/>
<circle cx="35.393" cy="25.2815" r="1.01124" transform="rotate(90 35.393 25.2815)" fill="white"/>
<circle cx="35.393" cy="33.3717" r="1.01124" transform="rotate(90 35.393 33.3717)" fill="white"/>
<circle cx="35.393" cy="41.4613" r="1.01124" transform="rotate(90 35.393 41.4613)" fill="white"/>
<circle cx="26.7978" cy="1.01124" r="1.01124" transform="rotate(90 26.7978 1.01124)" fill="white"/>
<circle cx="26.7978" cy="9.10171" r="1.01124" transform="rotate(90 26.7978 9.10171)" fill="white"/>
<circle cx="26.7978" cy="17.1914" r="1.01124" transform="rotate(90 26.7978 17.1914)" fill="white"/>
<circle cx="26.7978" cy="25.2815" r="1.01124" transform="rotate(90 26.7978 25.2815)" fill="white"/>
<circle cx="26.7978" cy="33.3717" r="1.01124" transform="rotate(90 26.7978 33.3717)" fill="white"/>
<circle cx="26.7978" cy="41.4613" r="1.01124" transform="rotate(90 26.7978 41.4613)" fill="white"/>
<circle cx="18.202" cy="1.01124" r="1.01124" transform="rotate(90 18.202 1.01124)" fill="white"/>
<circle cx="18.202" cy="9.10171" r="1.01124" transform="rotate(90 18.202 9.10171)" fill="white"/>
<circle cx="18.202" cy="17.1914" r="1.01124" transform="rotate(90 18.202 17.1914)" fill="white"/>
<circle cx="18.202" cy="25.2815" r="1.01124" transform="rotate(90 18.202 25.2815)" fill="white"/>
<circle cx="18.202" cy="33.3717" r="1.01124" transform="rotate(90 18.202 33.3717)" fill="white"/>
<circle cx="18.202" cy="41.4613" r="1.01124" transform="rotate(90 18.202 41.4613)" fill="white"/>
<circle cx="9.60628" cy="1.01124" r="1.01124" transform="rotate(90 9.60628 1.01124)" fill="white"/>
<circle cx="9.60628" cy="9.10171" r="1.01124" transform="rotate(90 9.60628 9.10171)" fill="white"/>
<circle cx="9.60628" cy="17.1914" r="1.01124" transform="rotate(90 9.60628 17.1914)" fill="white"/>
<circle cx="9.60628" cy="25.2815" r="1.01124" transform="rotate(90 9.60628 25.2815)" fill="white"/>
<circle cx="9.60628" cy="33.3717" r="1.01124" transform="rotate(90 9.60628 33.3717)" fill="white"/>
<circle cx="9.60628" cy="41.4613" r="1.01124" transform="rotate(90 9.60628 41.4613)" fill="white"/>
<circle cx="1.01103" cy="1.01124" r="1.01124" transform="rotate(90 1.01103 1.01124)" fill="white"/>
<circle cx="1.01103" cy="9.10171" r="1.01124" transform="rotate(90 1.01103 9.10171)" fill="white"/>
<circle cx="1.01103" cy="17.1914" r="1.01124" transform="rotate(90 1.01103 17.1914)" fill="white"/>
<circle cx="1.01103" cy="25.2815" r="1.01124" transform="rotate(90 1.01103 25.2815)" fill="white"/>
<circle cx="1.01103" cy="33.3717" r="1.01124" transform="rotate(90 1.01103 33.3717)" fill="white"/>
<circle cx="1.01103" cy="41.4613" r="1.01124" transform="rotate(90 1.01103 41.4613)" fill="white"/>
</g>
</svg>
